<?xml version="1.0" encoding="UTF-8" standalone="no"?>
<!-- Created with Inkscape (http://www.inkscape.org/) -->

<svg
   xmlns:dc="http://purl.org/dc/elements/1.1/"
   xmlns:cc="http://creativecommons.org/ns#"
   xmlns:rdf="http://www.w3.org/1999/02/22-rdf-syntax-ns#"
   xmlns:svg="http://www.w3.org/2000/svg"
   xmlns="http://www.w3.org/2000/svg"
   xmlns:sodipodi="http://sodipodi.sourceforge.net/DTD/sodipodi-0.dtd"
   xmlns:inkscape="http://www.inkscape.org/namespaces/inkscape"
   version="1.1"
   id="svg2"
   xml:space="preserve"
   width="287.95999"
   height="65.213333"
   viewBox="0 0 287.95999 65.213333"
   sodipodi:docname="hallau_shoots_logo.svg"
   inkscape:export-filename="/home/delta/Documents/hallau_shoots/2017/img/hallau_shoots_logo.png"
   inkscape:export-xdpi="90"
   inkscape:export-ydpi="90"
   inkscape:version="0.92.1 r15371"><metadata
     id="metadata8"><rdf:RDF><cc:Work
         rdf:about=""><dc:format>image/svg+xml</dc:format><dc:type
           rdf:resource="http://purl.org/dc/dcmitype/StillImage" /><dc:title></dc:title></cc:Work></rdf:RDF></metadata><defs
     id="defs6" /><sodipodi:namedview
     pagecolor="#ffffff"
     bordercolor="#666666"
     borderopacity="1"
     objecttolerance="10"
     gridtolerance="10"
     guidetolerance="10"
     inkscape:pageopacity="0"
     inkscape:pageshadow="2"
     inkscape:window-width="1920"
     inkscape:window-height="1029"
     id="namedview4"
     showgrid="false"
     inkscape:zoom="3.9485614"
     inkscape:cx="129.78979"
     inkscape:cy="2.4104253"
     inkscape:window-x="685"
     inkscape:window-y="1077"
     inkscape:window-maximized="1"
     inkscape:current-layer="g12" /><g
     id="g10"
     inkscape:groupmode="layer"
     inkscape:label="ink_ext_XXXXXX"
     transform="matrix(1.3333333,0,0,-1.3333333,0,65.213333)"><g
       id="g12"
       transform="scale(0.1)"><path
         d="M 0,-9.7412104e-7 H 2160.0001 V 489.75001 H 0 Z"
         style="fill:#000000;fill-opacity:1;fill-rule:nonzero;stroke:none;stroke-width:1.92187405"
         id="path16"
         inkscape:connector-curvature="0" /><path
         d="M 1076.89,215.422 H 2154.72 V 484.137 H 1076.89 Z"
         style="fill:#d7d7d7;fill-opacity:1;fill-rule:nonzero;stroke:none"
         id="path14"
         inkscape:connector-curvature="0" /><path
         d="m 113.313,284.941 c 0,-19.961 0.804,-22.121 9.464,-22.66 3.426,0 4.637,-1.082 4.637,-4.285 0,-2.375 -1.211,-3.699 -3.223,-3.699 h -1.617 c -3.625,0.527 -13.097,1.055 -20.152,1.055 -5.4376,0 -15.3126,-0.528 -18.5392,-1.055 h -1.6133 c -2.2148,0 -3.2226,1.324 -3.2226,3.965 0,2.937 1.207,4.019 4.6367,4.019 8.6641,0.539 9.4727,2.699 9.4727,22.66 v 120.09 c 0,19.61 -0.8086,21.758 -9.2735,22.297 -3.6289,0 -4.8359,1.074 -4.8359,4.274 0,2.382 1.207,3.703 3.2226,3.703 h 1.6133 c 3.4258,-0.528 13.1016,-1.055 18.5392,-1.055 7.055,0 16.527,0.527 20.152,1.055 h 1.617 c 2.211,0 3.223,-1.321 3.223,-3.965 0,-2.938 -1.414,-4.012 -4.637,-4.012 -8.66,-0.539 -9.464,-2.687 -9.464,-22.297 v -39.23 c 0,-10.75 0,-10.75 5.839,-10.75 h 31.825 c 6.046,0 6.246,0.265 6.246,9.402 v 40.578 c 0,19.61 -0.805,21.758 -9.27,22.297 -3.621,0 -4.832,1.074 -4.832,4.274 0,2.382 1.211,3.703 3.223,3.703 h 1.609 c 3.43,-0.528 13.098,-1.055 18.742,-1.055 6.856,0 16.328,0.527 19.957,1.055 h 1.61 c 2.218,0 3.226,-1.321 3.226,-3.965 0,-2.938 -1.414,-4.012 -4.636,-4.012 -8.668,-0.539 -9.473,-2.687 -9.473,-22.297 v -120.09 c 0,-19.961 0.805,-22.121 9.473,-22.66 3.425,0 4.636,-1.082 4.636,-4.285 0,-2.375 -1.211,-3.699 -3.226,-3.699 h -1.61 c -3.836,0.527 -13.101,1.055 -20.359,1.055 -5.242,0 -15.117,-0.528 -18.34,-1.055 h -1.609 c -2.219,0 -3.223,1.324 -3.223,3.965 0,2.937 1.211,4.019 4.633,4.019 8.664,0.539 9.469,2.699 9.469,22.66 v 51.797 c 0,8.633 -0.805,10.25 -5.641,10.25 h -32.43 c -4.636,0 -5.839,-1.617 -5.839,-8.093 v -53.954"
         style="fill:#ffffff;fill-opacity:1;fill-rule:nonzero;stroke:none"
         id="path18"
         inkscape:connector-curvature="0" /><path
         d="m 292.004,325.504 c -1.816,0 -2.828,1.066 -2.828,2.937 0,1.067 0.203,3.204 0.406,4.27 l 10.891,48.59 c 0.613,2.668 1.418,4.269 2.023,4.269 0.399,0 1.012,-0.8 1.211,-2.136 0,-0.266 0.199,-1.067 0.606,-2.133 l 10.691,-48.59 c 0.605,-4.805 0.605,-4.27 0.605,-5.07 0,-1.071 -1.007,-2.137 -2.421,-2.137 z m -7.469,-13.981 c 1.414,6.192 1.211,5.922 6.258,5.922 h 21.793 c 5.648,0 6.051,-0.543 7.664,-7 l 7.066,-31.484 c 0.805,-3.496 1.211,-6.731 1.211,-9.152 0,-4.844 -1.617,-6.727 -5.25,-7.266 -6.457,-0.805 -7.464,-1.613 -7.265,-4.547 0,-2.375 1.617,-3.699 3.633,-3.699 0.605,0 1.414,0 2.421,0.262 4.239,0.531 9.891,1.062 13.926,1.062 h 11.707 c 5.449,-0.269 9.688,-0.269 11.707,-0.531 0.805,-0.266 1.414,-0.266 1.817,-0.266 2.422,0 3.632,1.324 3.632,3.438 0,2.129 -0.808,3.476 -2.421,3.746 -6.055,0.805 -5.856,0.805 -7.266,1.879 -2.828,2.152 -5.047,7.539 -7.871,19.918 L 313.391,430.5 c -1.414,5.918 -2.02,7.266 -4.036,7.266 -1.816,0 -3.433,-2.422 -4.644,-7.266 L 270.035,278.961 c -2.207,-10.492 -5.019,-15.074 -9.644,-15.879 -5.825,-1.344 -6.43,-1.617 -6.227,-4.559 0,-2.375 1.809,-3.964 4.219,-3.699 l 7.031,0.528 h 5.828 c 4.422,-0.262 2.211,-0.262 6.84,-0.262 h 7.465 c 0,0 0.402,0 1.008,-0.266 h 2.218 c 3.836,0 5.45,1.324 5.45,3.965 0,2.676 -1.817,4.024 -5.852,4.024 -8.879,-0.27 -11.5,1.882 -11.5,9.687 0,3.5 0.399,6.996 1.004,9.688 l 6.66,29.335"
         style="fill:#ffffff;fill-opacity:1;fill-rule:nonzero;stroke:none"
         id="path20"
         inkscape:connector-curvature="0" /><path
         d="m 504.898,261.957 c 0,-6.176 -0.605,-7.254 -4.433,-7.254 h -2.418 c -3.629,0.266 -8.871,0.535 -13.102,0.535 H 456.93 l -4.028,0.114 h -4.035 c -2.015,0 -5.844,-0.262 -11.082,-0.528 -2.625,0 -4.433,-0.265 -5.847,-0.527 h -1.614 c -2.219,0 -3.222,1.324 -3.222,4.172 0,2.953 1.211,4.027 4.636,4.027 8.461,0.535 9.469,2.688 9.469,22.317 v 120.199 c 0,19.629 -1.008,21.777 -9.469,22.312 -3.425,0 -4.636,1.078 -4.636,4.016 0,2.644 1.003,3.965 3.222,3.965 0.403,0 1.012,0 1.614,-0.266 2.82,-0.262 13.101,-0.789 19.148,-0.789 6.449,0 16.727,0.527 19.551,0.789 0.605,0.266 1.211,0.266 1.613,0.266 2.219,0 3.223,-1.321 3.223,-3.965 0,-2.938 -1.211,-4.016 -4.637,-4.016 -8.461,-0.535 -9.473,-2.683 -9.473,-22.312 V 288.309 c 0,-19.36 2.621,-25.008 11.895,-25.008 6.648,0 12.496,4.304 17.535,13.179 2.215,4.032 5.844,13.981 6.848,19.36 1.613,7.527 2.418,8.871 4.433,8.871 1.817,0 2.824,-2.148 2.824,-6.453 v -36.301"
         style="fill:#ffffff;fill-opacity:1;fill-rule:nonzero;stroke:none"
         id="path22"
         inkscape:connector-curvature="0" /><path
         d="m 651.012,261.957 c 0,-6.176 -0.606,-7.254 -4.434,-7.254 h -2.418 c -3.629,0.266 -8.867,0.535 -13.101,0.535 h -28.016 l -4.027,0.114 h -4.036 c -2.015,0 -5.843,-0.262 -11.082,-0.528 -2.625,0 -4.433,-0.265 -5.847,-0.527 h -1.61 c -2.218,0 -3.226,1.324 -3.226,4.172 0,2.953 1.211,4.027 4.637,4.027 8.461,0.535 9.472,2.688 9.472,22.317 v 120.199 c 0,19.629 -1.011,21.777 -9.472,22.312 -3.426,0 -4.637,1.078 -4.637,4.016 0,2.644 1.008,3.965 3.226,3.965 0.399,0 1.004,0 1.61,-0.266 2.824,-0.262 13.101,-0.789 19.148,-0.789 6.449,0 16.727,0.527 19.551,0.789 0.605,0.266 1.211,0.266 1.613,0.266 2.215,0 3.223,-1.321 3.223,-3.965 0,-2.938 -1.211,-4.016 -4.633,-4.016 -8.465,-0.535 -9.473,-2.683 -9.473,-22.312 V 288.309 c 0,-19.36 2.618,-25.008 11.891,-25.008 6.649,0 12.496,4.304 17.535,13.179 2.215,4.032 5.844,13.981 6.848,19.36 1.613,7.527 2.422,8.871 4.434,8.871 1.816,0 2.824,-2.148 2.824,-6.453 v -36.301"
         style="fill:#ffffff;fill-opacity:1;fill-rule:nonzero;stroke:none"
         id="path24"
         inkscape:connector-curvature="0" /><path
         d="m 757.129,325.504 c -1.816,0 -2.82,1.066 -2.82,2.937 0,1.067 0.199,3.204 0.398,4.27 l 10.898,48.59 c 0.606,2.668 1.411,4.269 2.016,4.269 0.406,0 1.012,-0.8 1.215,-2.136 0,-0.266 0.199,-1.067 0.602,-2.133 l 10.695,-48.59 c 0.605,-4.805 0.605,-4.27 0.605,-5.07 0,-1.071 -1.008,-2.137 -2.422,-2.137 z m -7.465,-13.981 c 1.414,6.192 1.211,5.922 6.254,5.922 h 21.793 c 5.652,0 6.055,-0.543 7.672,-7 l 7.058,-31.484 c 0.805,-3.496 1.211,-6.731 1.211,-9.152 0,-4.844 -1.609,-6.727 -5.242,-7.266 -6.461,-0.805 -7.469,-1.613 -7.265,-4.547 0,-2.375 1.613,-3.699 3.632,-3.699 0.606,0 1.411,0 2.422,0.262 4.239,0.531 9.887,1.062 13.926,1.062 h 11.703 c 5.449,-0.269 9.688,-0.269 11.703,-0.531 0.813,-0.266 1.418,-0.266 1.821,-0.266 2.421,0 3.632,1.324 3.632,3.438 0,2.129 -0.808,3.476 -2.421,3.746 -6.055,0.805 -5.852,0.805 -7.27,1.879 -2.82,2.152 -5.043,7.539 -7.871,19.918 L 778.52,430.5 c -1.415,5.918 -2.016,7.266 -4.036,7.266 -1.816,0 -3.429,-2.422 -4.64,-7.266 L 735.168,278.961 c -2.215,-10.492 -5.02,-15.074 -9.645,-15.879 -5.824,-1.344 -6.429,-1.617 -6.23,-4.559 0,-2.375 1.812,-3.964 4.219,-3.699 l 7.031,0.528 h 5.828 c 4.422,-0.262 2.207,-0.262 6.836,-0.262 h 7.469 c 0,0 0.402,0 1.008,-0.266 h 2.218 c 3.832,0 5.45,1.324 5.45,3.965 0,2.676 -1.817,4.024 -5.848,4.024 -8.883,-0.27 -11.508,1.882 -11.508,9.687 0,3.5 0.406,6.996 1.012,9.688 l 6.656,29.335"
         style="fill:#ffffff;fill-opacity:1;fill-rule:nonzero;stroke:none"
         id="path26"
         inkscape:connector-curvature="0" /><path
         d="m 900.895,404.992 c 0,19.641 -1.012,21.789 -9.473,22.332 -3.43,0 -4.633,1.074 -4.633,4.016 0,2.644 1.004,3.965 3.223,3.965 0.406,0 1.008,0 1.609,-0.266 2.621,-0.262 13.102,-0.789 18.746,-0.789 6.856,0 17.149,0.527 19.977,0.789 0.804,0.266 1.41,0.266 1.816,0.266 2.219,0 3.231,-1.321 3.231,-3.965 0,-2.942 -1.211,-4.016 -4.848,-4.016 -8.48,-0.543 -9.492,-2.691 -9.492,-22.332 v -95.781 c 0,-20.18 1.211,-27.984 5.453,-36.051 4.238,-8.347 11.309,-12.648 20.402,-12.648 9.692,0 17.571,5.383 22.215,15.336 4.445,9.414 5.453,17.754 5.453,41.703 v 81.789 c 0,22.066 -1.82,27.176 -10.508,27.984 -4.035,0.27 -5.449,1.344 -5.449,4.278 0,2.382 1.211,3.437 4.039,3.437 h 2.422 l 1.617,-0.262 h 1.414 l 1.618,-0.265 h 11.378 c 4.032,0 3.833,0 9.27,0.527 h 2.418 c 2.824,0 4.035,-1.055 4.035,-3.437 0,-2.934 -1.41,-4.008 -5.445,-4.278 -8.461,-0.808 -10.278,-5.918 -10.278,-27.984 v -81.52 c 0,-29.328 -1.98,-40.629 -9.156,-51.66 -6.465,-9.949 -17.98,-15.59 -31.914,-15.59 -11.308,0 -20.394,3.493 -27.652,10.746 -8.465,8.34 -11.488,18.297 -11.488,37.668 v 106.008"
         style="fill:#ffffff;fill-opacity:1;fill-rule:nonzero;stroke:none"
         id="path28"
         inkscape:connector-curvature="0" /><path
         d="m 1223.47,392.848 c 0,-4.301 -1.01,-6.457 -2.83,-6.457 -2.62,0 -3.83,2.961 -7.05,15.867 -5.24,22.586 -9.86,29.316 -19.72,29.316 -11.48,0 -19.52,-11.57 -19.52,-27.969 0,-9.414 2.61,-17.214 7.64,-23.937 4.44,-5.914 8.65,-10.215 22.14,-22.051 10.06,-9.14 14.49,-14.25 18.33,-21.508 5.24,-9.683 7.85,-20.711 7.85,-31.734 0,-30.922 -18.94,-53.781 -44.29,-53.781 -10.26,0 -20.33,2.961 -26.36,7.801 -2.62,2.152 -3.22,4.57 -3.22,11.828 v 34.425 c 0,4.301 1.41,6.719 4.03,6.719 2.62,0 3.21,-1.609 5.02,-10.219 6.24,-30.113 14.09,-42.218 27.57,-42.218 12.48,0 21.74,13.449 21.74,31.465 0,9.41 -2.83,19.093 -7.65,26.085 -3.21,4.836 -7.04,9.141 -11.08,12.637 l -4.82,4.571 -5.03,4.304 -4.82,4.297 c -16.3,14.789 -24.16,30.66 -24.16,49.481 0,27.429 16.3,47.269 38.44,47.269 7.45,0 15.49,-1.601 22.94,-4.535 3.64,-1.598 4.85,-3.742 4.85,-9.93 v -31.726"
         style="fill:#000000;fill-opacity:1;fill-rule:nonzero;stroke:none"
         id="path30"
         inkscape:connector-curvature="0" /><path
         d="m 1335.69,284.941 c 0,-19.961 0.81,-22.121 9.48,-22.66 3.42,0 4.63,-1.082 4.63,-4.285 0,-2.375 -1.21,-3.699 -3.23,-3.699 h -1.61 c -3.62,0.527 -13.09,1.055 -20.15,1.055 -5.43,0 -15.32,-0.528 -18.54,-1.055 h -1.61 c -2.22,0 -3.22,1.324 -3.22,3.965 0,2.937 1.21,4.019 4.62,4.019 8.68,0.539 9.49,2.699 9.49,22.66 v 120.09 c 0,19.61 -0.81,21.758 -9.28,22.297 -3.62,0 -4.83,1.074 -4.83,4.274 0,2.382 1.21,3.703 3.22,3.703 h 1.61 c 3.43,-0.528 13.11,-1.055 18.54,-1.055 7.06,0 16.53,0.527 20.15,1.055 h 1.61 c 2.22,0 3.23,-1.321 3.23,-3.965 0,-2.938 -1.41,-4.012 -4.63,-4.012 -8.67,-0.539 -9.48,-2.687 -9.48,-22.297 v -39.23 c 0,-10.75 0,-10.75 5.85,-10.75 h 31.82 c 6.04,0 6.24,0.265 6.24,9.402 v 40.578 c 0,19.61 -0.79,21.758 -9.26,22.297 -3.62,0 -4.83,1.074 -4.83,4.274 0,2.382 1.21,3.703 3.22,3.703 h 1.61 c 3.43,-0.528 13.1,-1.055 18.74,-1.055 6.86,0 16.33,0.527 19.96,1.055 h 1.6 c 2.22,0 3.23,-1.321 3.23,-3.965 0,-2.938 -1.41,-4.012 -4.63,-4.012 -8.67,-0.539 -9.47,-2.687 -9.47,-22.297 v -120.09 c 0,-19.961 0.8,-22.121 9.47,-22.66 3.43,0 4.63,-1.082 4.63,-4.285 0,-2.375 -1.2,-3.699 -3.23,-3.699 h -1.6 c -3.83,0.527 -13.1,1.055 -20.36,1.055 -5.24,0 -15.12,-0.528 -18.34,-1.055 h -1.61 c -2.22,0 -3.22,1.324 -3.22,3.965 0,2.937 1.21,4.019 4.64,4.019 8.66,0.539 9.45,2.699 9.45,22.66 v 51.797 c 0,8.633 -0.79,10.25 -5.64,10.25 h -32.42 c -4.64,0 -5.85,-1.617 -5.85,-8.093 v -53.954"
         style="fill:#000000;fill-opacity:1;fill-rule:nonzero;stroke:none"
         id="path32"
         inkscape:connector-curvature="0" /><path
         d="m 1538.48,431.574 c 18.16,0 31.69,-39.289 31.69,-92.562 0,-25.559 -2.83,-44.395 -8.48,-59.188 -5.65,-13.726 -13.33,-21.797 -21,-21.797 -6.26,0 -13.32,6.731 -18.97,18.297 -7.87,16.141 -12.51,43.321 -12.51,74.258 0,46.816 12.3,80.992 29.27,80.992 z m 0.8,7.465 c -13.93,0 -27.65,-10.16 -37.71,-28.187 -10.05,-18.024 -15.07,-40.629 -15.07,-67.532 0,-51.39 23.31,-92.754 52.18,-92.754 30.07,0 54.18,42.172 54.18,94.633 0,52.469 -23.5,93.84 -53.58,93.84"
         style="fill:#000000;fill-opacity:1;fill-rule:nonzero;stroke:none"
         id="path34"
         inkscape:connector-curvature="0" /><path
         d="m 1720.06,431.574 c 18.16,0 31.7,-39.289 31.7,-92.562 0,-25.559 -2.83,-44.395 -8.49,-59.188 -5.65,-13.726 -13.32,-21.797 -20.99,-21.797 -6.25,0 -13.32,6.731 -18.97,18.297 -7.87,16.141 -12.52,43.321 -12.52,74.258 0,46.816 12.32,80.992 29.27,80.992 z m 0.81,7.465 c -13.93,0 -27.65,-10.16 -37.72,-28.187 -10.03,-18.024 -15.05,-40.629 -15.05,-67.532 0,-51.39 23.3,-92.754 52.16,-92.754 30.08,0 54.19,42.172 54.19,94.633 0,52.469 -23.51,93.84 -53.58,93.84"
         style="fill:#000000;fill-opacity:1;fill-rule:nonzero;stroke:none"
         id="path36"
         inkscape:connector-curvature="0" /><path
         d="m 1902.57,284.613 c 0,-19.648 1,-21.8 9.47,-22.34 3.43,0 4.64,-1.078 4.64,-4.011 0,-2.641 -1.01,-3.965 -3.23,-3.965 h -1.6 c -3.43,0.527 -13.11,1.055 -19.15,1.055 -6.46,0 -15.93,-0.528 -19.56,-1.055 h -1.62 c -2.21,0 -3.21,1.324 -3.21,3.965 0,2.933 1.2,4.011 4.63,4.011 8.47,0.54 9.47,2.692 9.47,22.34 v 131.61 c -0.4,11.035 -0.6,11.308 -6.04,11.308 -11.9,0 -16.33,-5.929 -25.39,-34.187 -1.62,-4.844 -3.03,-6.996 -4.85,-6.996 -1.2,0 -2.21,1.617 -2.21,4.039 0,2.152 0,1.879 0.2,3.226 l 5.04,43.711 c 0.81,6.184 1.01,6.989 3.42,6.989 1.41,0 2.22,-0.805 3.03,-3.493 1.81,-5.644 3.22,-6.449 10.48,-6.449 h 53.81 c 8.66,0 11.29,1.344 13.91,8.063 1,2.148 1.82,2.953 3.22,2.953 1.82,0 2.42,-1.074 2.62,-5.371 v -1.344 l -1.81,-47.481 c -0.2,-3.226 -1.41,-5.113 -3.03,-5.113 -2.21,0.27 -2.82,1.887 -3.82,8.613 -1.42,12.918 -4.64,23.145 -8.47,27.723 -2.82,3.496 -7.66,5.379 -13.51,5.379 -3.41,0 -5.44,-1.074 -6.03,-3.227 -0.41,-1.347 -0.41,-0.812 -0.41,-8.343 v -131.61"
         style="fill:#000000;fill-opacity:1;fill-rule:nonzero;stroke:none"
         id="path38"
         inkscape:connector-curvature="0" /><path
         d="m 2077.98,392.848 c 0,-4.301 -1.02,-6.457 -2.83,-6.457 -2.62,0 -3.83,2.961 -7.05,15.867 -5.24,22.586 -9.87,29.316 -19.72,29.316 -11.48,0 -19.52,-11.57 -19.52,-27.969 0,-9.414 2.61,-17.214 7.64,-23.937 4.44,-5.914 8.66,-10.215 22.14,-22.051 10.06,-9.14 14.49,-14.25 18.32,-21.508 5.24,-9.683 7.86,-20.711 7.86,-31.734 0,-30.922 -18.93,-53.781 -44.29,-53.781 -10.27,0 -20.32,2.961 -26.37,7.801 -2.61,2.152 -3.21,4.57 -3.21,11.828 v 34.425 c 0,4.301 1.4,6.719 4.02,6.719 2.62,0 3.22,-1.609 5.04,-10.219 6.23,-30.113 14.08,-42.218 27.56,-42.218 12.48,0 21.74,13.449 21.74,31.465 0,9.41 -2.83,19.093 -7.65,26.085 -3.22,4.836 -7.05,9.141 -11.06,12.637 l -4.84,4.571 -5.04,4.304 -4.82,4.297 c -16.3,14.789 -24.14,30.66 -24.14,49.481 0,27.429 16.3,47.269 38.43,47.269 7.45,0 15.49,-1.601 22.94,-4.535 3.64,-1.598 4.85,-3.742 4.85,-9.93 v -31.726"
         style="fill:#000000;fill-opacity:1;fill-rule:nonzero;stroke:none"
         id="path40"
         inkscape:connector-curvature="0" /><path
         d="m 924.77,38.5313 c 10.66,0 11.406,12.4414 13.882,12.4414 0.746,0 1.368,-0.6055 1.368,-2.7305 0,-4.5508 -6.075,-17.2969 -19.461,-17.2969 -13.883,0 -23.305,15.1719 -23.305,37.9258 0,20.0234 10.414,35.4999 25.785,35.4999 4.336,0 10.41,-1.211 12.641,-2.883 1.734,-1.215 1.98,-1.6677 1.98,-8.1911 0,-10.4688 -0.246,-11.0742 -2.722,-11.0742 -2.231,0 -2.981,1.0625 -4.836,5.3125 -4.461,10.0078 -5.082,13.1948 -8.43,13.1948 -5.828,0 -13.016,-10.3159 -13.016,-28.2144 0,-19.1172 6.942,-33.9843 16.114,-33.9843"
         style="fill:#ffffff;fill-opacity:1;fill-rule:nonzero;stroke:none"
         id="path42"
         inkscape:connector-curvature="0" /><path
         d="m 969.273,30.9453 c -13.761,0 -23.804,17.1445 -23.804,36.7149 0,19.5664 10.043,36.7108 23.804,36.7108 13.758,0 23.797,-17.1444 23.797,-36.7108 0,-19.5704 -10.039,-36.7149 -23.797,-36.7149 z m 12.395,36.7149 c 0,14.1054 -4.34,33.0698 -12.395,33.0698 -8.058,0 -12.398,-18.9644 -12.398,-33.0698 0,-14.1094 4.34,-33.0704 12.398,-33.0704 8.055,0 12.395,18.961 12.395,33.0704"
         style="fill:#ffffff;fill-opacity:1;fill-rule:nonzero;stroke:none"
         id="path44"
         inkscape:connector-curvature="0" /><path
         d="m 1014.89,42.7773 c 0,-4.3984 1.12,-5.3085 4.59,-6.371 2.23,-0.7579 2.6,-1.3633 2.6,-2.125 0,-0.9063 -0.62,-1.5118 -1.36,-1.5118 -2.23,0 -6.95,0.6055 -10.42,0.6055 -3.22,0 -7.31,-0.6055 -9.91,-0.6055 -1.863,0 -2.363,0.3008 -2.363,1.3633 0,1.2149 0.371,1.668 2.233,2.2735 3.48,1.0625 4.47,1.5195 4.47,5.7656 v 45.9687 c 0,3.0313 -0.99,4.2461 -3.35,4.3985 -1.989,0.1523 -2.482,0 -2.482,1.2109 0,1.3672 0.372,1.2148 6.322,4.3984 7.56,4.0976 7.81,7.1326 9.17,7.1326 0.62,0 1,-0.304 1,-3.34 v -6.6715 c 0,-0.7578 0.12,-0.9101 0.37,-0.9101 0.74,-0.1485 5.7,10.0116 15.25,10.0116 9.66,0 10.28,-10.4687 12.14,-10.4687 1.86,0 5.83,10.4687 15,10.4687 6.94,0 13.27,-5.914 13.27,-17.4452 V 42.4766 c 0,-3.1836 0.62,-4.7032 3.96,-5.918 2.36,-0.9102 3.35,-1.0625 3.35,-2.2773 0,-1.211 -0.75,-1.5118 -1.61,-1.5118 -2.48,0 -7.19,0.6055 -10.79,0.6055 -2.97,0 -7.68,-0.6055 -9.54,-0.6055 -1.37,0 -1.99,0.6055 -1.99,1.3633 0,1.5156 1.49,1.9688 2.36,2.2735 3.84,1.3671 4.09,1.9726 4.09,7.5859 v 42.4766 c 0,6.6757 -2.72,10.3164 -7.69,10.3164 -5.57,0 -10.41,-6.2188 -10.41,-12.4414 V 44.9023 c 0,-6.2226 0.62,-7.8867 4.34,-8.6484 2.36,-0.6055 3.47,-1.0586 3.47,-2.2734 0,-0.7578 -0.37,-1.211 -1.49,-1.211 -2.84,0 -7.56,0.6055 -11.4,0.6055 -2.35,0 -7.31,-0.6055 -9.79,-0.6055 -1.37,0 -1.61,0.6055 -1.61,1.5118 0,1.0664 0.62,1.5195 2.85,2.125 1.74,0.457 3.47,1.3671 3.47,4.8593 v 43.836 c 0,7.7422 -3.6,11.6836 -7.44,11.6836 -6.19,0 -10.66,-5.7657 -10.66,-13.0469 v -40.961"
         style="fill:#ffffff;fill-opacity:1;fill-rule:nonzero;stroke:none"
         id="path46"
         inkscape:connector-curvature="0" /><path
         d="m 1097.81,13.5 c 0,-6.52344 1.37,-8.19141 7.57,-8.94922 2.35,-0.30469 2.85,-0.75781 2.85,-1.82031 0,-1.05859 -0.5,-1.82422 -2.11,-1.82422 -2.98,0 -5.45,0.61328 -12.52,0.61328 -3.59,0 -7.18,-0.61328 -10.78,-0.61328 -1.61,0 -2.98,0.15234 -2.98,1.82422 0,1.97266 1.24,1.82031 2.73,2.12109 2.61,0.60938 5.08,0.30469 5.08,4.55078 V 86.7734 c 0,4.3985 -1.85,4.2461 -4.58,5.1602 -1.61,0.6055 -2.85,0.6055 -2.85,1.9687 0,2.2774 2.72,1.5196 10.29,6.2187 4.71,2.887 5.08,4.25 6.19,4.25 0.62,0 0.74,-0.305 0.74,-3.641 0,-5.9175 0.13,-6.0659 0.5,-6.0659 0.5,0 6.45,9.7069 14,9.7069 10.91,0 18.85,-15.1718 18.85,-34.4335 0,-23.5156 -10.54,-37.4727 -22.44,-37.4727 -6.45,0 -9.54,3.9415 -10.04,3.9415 -0.37,0 -0.5,-0.3047 -0.5,-1.9688 z m 0,38.3789 c 0,-10.3125 2.98,-15.7773 8.68,-15.7773 7.94,0 12.89,11.5312 12.89,30.039 0,19.1172 -4.95,30.6446 -12.51,30.6446 -4.97,0 -9.06,-5.1602 -9.06,-9.8594 V 51.8789"
         style="fill:#ffffff;fill-opacity:1;fill-rule:nonzero;stroke:none"
         id="path48"
         inkscape:connector-curvature="0" /><path
         d="m 1174.42,48.5469 c 0,-6.0703 2.23,-7.8946 4.1,-7.8946 2.59,0 2.96,4.8594 4.96,4.8594 0.74,0 1.11,-0.6094 1.11,-1.8203 0,-5.0117 -5.46,-12.1406 -10.78,-12.1406 -7.94,0 -8.81,11.2265 -10.29,11.2265 -1.5,0 -5.21,-11.832 -14.88,-11.832 -6.45,0 -10.42,4.25 -10.42,13.1992 0,16.6836 26.04,27.3047 26.04,36.8672 v 13.0469 c 0,3.9375 -1.87,6.6714 -5.21,6.6714 -4.7,0 -8.8,-4.855 -9.54,-12.8941 -0.62,-6.6757 -3.1,-10.7695 -7.69,-10.7695 -2.97,0 -4.47,1.9727 -4.47,5.0039 0,5.918 9.93,22.3007 24.8,22.3007 9.67,0 12.27,-2.125 12.27,-10.3124 z m -10.16,20.9297 c 0,1.8242 -0.37,2.125 -1.24,2.125 -1.61,0 -13.01,-11.9844 -13.39,-22.6016 0,-4.7031 2.11,-8.3477 5.59,-8.3477 5.82,0 9.04,5.4649 9.04,19.1172 v 9.7071"
         style="fill:#ffffff;fill-opacity:1;fill-rule:nonzero;stroke:none"
         id="path50"
         inkscape:connector-curvature="0" /><path
         d="m 1219.42,84.4961 c 0,8.8008 -3.23,12.2891 -7.69,12.2891 -4.71,0 -8.55,-3.9414 -10.66,-11.375 V 43.2383 c 0,-4.707 1.49,-5.918 4.09,-6.832 2.49,-0.9102 2.86,-1.3633 2.86,-2.125 0,-0.9063 -0.37,-1.5118 -1.5,-1.5118 -2.35,0 -5.7,0.6055 -10.78,0.6055 -3.96,0 -7.8,-0.6055 -9.79,-0.6055 -1.36,0 -1.99,0.3008 -1.99,1.668 0,1.2109 1,1.8164 2.6,2.2773 3.36,0.9063 4.35,1.9649 4.35,7.129 v 42.4726 c 0,4.5508 -0.62,5.0078 -2.6,5.7695 -1.75,0.6055 -3.72,0 -3.72,1.6641 0,2.125 2.47,1.8203 7.56,5.1602 7.07,4.7028 6.33,6.3708 7.93,6.3708 0.74,0 0.99,-0.609 0.99,-2.426 V 92.3867 h 0.25 c 4.09,6.0703 7.44,11.9843 14.63,11.9843 7.68,0 13.64,-5.1562 13.64,-19.1132 V 41.8711 c 0,-3.0391 1.1,-4.8555 4.08,-5.4648 2.48,-0.6055 2.85,-1.211 2.85,-2.4258 0,-0.6055 -0.62,-1.211 -1.61,-1.211 -1.48,0 -4.33,0.6055 -10.65,0.6055 -2.98,0 -6.08,-0.6055 -9.05,-0.6055 -1.49,0 -2.23,0.4532 -2.23,1.5118 0,1.2148 0.37,1.5195 2.1,2.125 3.72,1.3671 4.34,2.125 4.34,5.4648 v 42.625"
         style="fill:#ffffff;fill-opacity:1;fill-rule:nonzero;stroke:none"
         id="path52"
         inkscape:connector-curvature="0" /><path
         d="m 1248.3,65.5352 c -8.55,30.7968 -8.44,32.7656 -10.66,33.375 -1.12,0.3046 -1.86,0.4531 -1.86,1.8198 0,1.063 0.49,1.821 1.86,1.821 1.24,0 4.22,-0.61 9.05,-0.61 4.83,0 8.43,0.61 9.17,0.61 1.37,0 1.98,-0.457 1.98,-1.668 0,-1.215 -0.61,-1.5197 -2.11,-1.9728 -3.71,-1.0625 -4.7,-1.668 -4.7,-4.2461 0,-1.2188 0.37,-3.3399 4.96,-20.3282 5.45,-20.0234 4.95,-21.5429 6.2,-21.5429 1.11,0 1.24,1.9726 1.85,4.0976 l 8.19,32.3086 c 0.37,1.8203 0.87,3.4922 0.87,4.5508 0,3.0352 -1.63,4.5508 -4.84,5.1602 -1.74,0.3046 -2.23,0.4531 -2.23,1.5158 0,1.515 0.61,2.125 1.98,2.125 1.48,0 3.46,-0.61 6.94,-0.61 3.85,0 5.7,0.61 6.69,0.61 1,0 1.37,-0.758 1.37,-1.516 0,-1.0662 -0.74,-1.9725 -1.74,-2.1248 -2.35,-0.4532 -3.84,-4.2461 -5.21,-9.4024 L 1254.62,5.91797 C 1253.63,1.97266 1252.89,0 1248.17,0 c -4.95,0 -5.57,0.90625 -5.57,7.12891 0,6.37109 0.37,7.12889 5.83,7.12889 4.96,0 5.7,0.3008 7.43,8.1914 l 1.98,8.8008 -9.54,34.2852"
         style="fill:#ffffff;fill-opacity:1;fill-rule:nonzero;stroke:none"
         id="path54"
         inkscape:connector-curvature="0" /><path
         d="M 5,215.422 H 2154.72 V 484.137 H 5 Z"
         style="fill:none;stroke:#000000;stroke-width:10;stroke-linecap:butt;stroke-linejoin:miter;stroke-miterlimit:4;stroke-dasharray:none;stroke-opacity:1"
         id="path56"
         inkscape:connector-curvature="0" /><path
         d="m 1425.57,313.281 c 0,0 212.46,135.856 410.2,-1.605 0,0 -152.72,100.984 -410.2,1.605"
         style="fill:#9933ff;fill-opacity:1;fill-rule:nonzero;stroke:none"
         id="path58"
         inkscape:connector-curvature="0" /><path
         d="m 1067.74,144.891 c 14.82,0 26.02,14.843 26.02,32.168 0,6.597 -1.38,9.074 -10.17,9.074 -13.78,0 -14.47,-11.547 -17.4,-11.547 -1.03,0 -1.38,0.617 -1.38,1.648 0,9.899 7.75,22.063 27.22,23.09 16.19,0.828 16.89,2.684 18.61,9.285 1.21,4.325 0.34,7.215 1.89,7.215 1.38,0 3.28,-1.855 3.28,-9.07 0,-13.613 -7.41,-21.242 -17.58,-21.863 0.34,-2.68 0.7,-5.149 0.7,-7.625 0,-24.332 -19.3,-41.036 -39.29,-41.036 -21.36,0 -33.07,16.083 -33.07,40.211 0,21.649 12.06,38.559 29.11,45.778 -2.76,3.504 -4.3,9.48 -4.3,15.668 0,18.558 10.85,34.023 27.56,34.023 8.78,0 18.95,-6.187 18.95,-11.14 0,-3.293 -2.41,-20.614 -6.89,-20.614 -3.62,0 -3.97,18.555 -15.68,18.555 -11.89,0 -18.78,-10.309 -18.78,-23.914 0,-4.953 1.21,-8.457 3.62,-10.727 1.04,0 3.79,0.828 7.41,0.828 8.27,0 11.37,-2.476 11.37,-6.808 0,-3.914 -2.76,-6.391 -7.58,-6.391 -3.96,0 -6.55,1.446 -8.44,2.68 -1.72,1.445 -2.59,2.68 -3.45,2.68 -10.33,0 -18.78,-16.907 -18.78,-35.879 0,-22.68 12.06,-36.289 27.05,-36.289"
         style="fill:#9933ff;fill-opacity:1;fill-rule:nonzero;stroke:none"
         id="path60"
         inkscape:connector-curvature="0" /></g></g></svg>